# xmcd
#
# Track frame offsets:
#  150
#  10614
#  20726
#  31911
#  41755
#  51217
#  61722
#  69370
#  79205
#  91243
#  101824
#  111115
#  120879
#  130554
#  140764
#  149972
#  160545
#  169943
#  179081
#  188553
#  200961
#  210540
#  219279
#  230115
#  241515
#
# Disc length: 3364 seconds
#
# Revision: 0
# Processed by: cddbd v1.5.1PL2 Copyright (c) Steve Scherf et al.
# Submitted via: Collectorz.com_Music_Collector 6.9
#
DISCID=600d2219
DTITLE=Various Artist - Doo-Bop-Jivers - Volume 06
DYEAR=1997
DGENRE=Doo-Wop
TTITLE0=Mark IV, The - Goose Bumps
TTITLE1=Witnesses, The - Ton Of Bricks
TTITLE2=Valino, J. and Chorus - Bucket Of Love
TTITLE3=Tempos, The - When You Were Sweet Sixteen
TTITLE4=Red Caps, The - Rock 'n' Roll Stomp
TTITLE5=Deep River Boys, The - You're Not Too Old
TTITLE6=Monarchs, The - Ding Dong
TTITLE7=Fascinators, The - Fried Chicken and Macaroni
TTITLE8=Charms, The - Well Oh Well
TTITLE9=Dalmations, The - Rock 'n' Time
TTITLE10=Counts, The - Shake The Town
TTITLE11=Scatman Crothers, The - Rock, Roma, Rock It
TTITLE12=Four J's, The - Be Nice, Don't Fight
TTITLE13=Diamond Bros., The - Rag Mop
TTITLE14=Four J's, The - R 'n' Rage
TTITLE15=Townsmen, The - Just A Little Bit
TTITLE16=Beaumont, Jimmie - Give Her My Best
TTITLE17=Four Coins, The - I Want A Little Girl
TTITLE18=Addrisi Bros., The - Love Me Baby
TTITLE19=Royal Premiers, The - Who Am I Without Your Love
TTITLE20=Horizons, The - Strange Oh Strange
TTITLE21=Binns, Clifford - You've Got To Help Me
TTITLE22=Robins, The - Trouble
TTITLE23=Brown, George - Ninety Nine Years and One Dark Day
TTITLE24=Stoopers, George - Come Back Baby
EXTD=
EXTT0=
EXTT1=
EXTT2=
EXTT3=
EXTT4=
EXTT5=
EXTT6=
EXTT7=
EXTT8=
EXTT9=
EXTT10=
EXTT11=
EXTT12=
EXTT13=
EXTT14=
EXTT15=
EXTT16=
EXTT17=
EXTT18=
EXTT19=
EXTT20=
EXTT21=
EXTT22=
EXTT23=
EXTT24=
PLAYORDER=
